<svg width="32" height="32" viewBox="0 0 32 32" fill="none" xmlns="http://www.w3.org/2000/svg">
<rect width="32" height="32" rx="8" fill="#0E8DFF"/>
<path d="M8 16C8 13.8 9.8 12 12 12C14.2 12 16 13.8 16 16C16 18.2 14.2 20 12 20C9.8 20 8 18.2 8 16Z" fill="white"/>
<path d="M16 16C16 13.8 17.8 12 20 12C22.2 12 24 13.8 24 16C24 18.2 22.2 20 20 20C17.8 20 16 18.2 16 16Z" fill="white"/>
<path d="M8 8C8 5.8 9.8 4 12 4C14.2 4 16 5.8 16 8C16 10.2 14.2 12 12 12C9.8 12 8 10.2 8 8Z" fill="white"/>
<path d="M16 8C16 5.8 17.8 4 20 4C22.2 4 24 5.8 24 8C24 10.2 22.2 12 20 12C17.8 12 16 10.2 16 8Z" fill="white"/>
<path d="M8 24C8 21.8 9.8 20 12 20C14.2 20 16 21.8 16 24C16 26.2 14.2 28 12 28C9.8 28 8 26.2 8 24Z" fill="white"/>
<path d="M16 24C16 21.8 17.8 20 20 20C22.2 20 24 21.8 24 24C24 26.2 22.2 28 20 28C17.8 28 16 26.2 16 24Z" fill="white"/>
</svg>
